<?xml version="1.0" encoding="UTF-8" standalone="no"?>
<!-- Created with Inkscape (http://www.inkscape.org/) -->

<svg
   width="32"
   height="32"
   viewBox="0 0 32 32"
   version="1.1"
   id="svg1"
   xml:space="preserve"
   inkscape:version="1.3 (0e150ed6c4, 2023-07-21)"
   sodipodi:docname="abandoned-vehicle.svg"
   xmlns:inkscape="http://www.inkscape.org/namespaces/inkscape"
   xmlns:sodipodi="http://sodipodi.sourceforge.net/DTD/sodipodi-0.dtd"
   xmlns="http://www.w3.org/2000/svg"
   xmlns:svg="http://www.w3.org/2000/svg"><sodipodi:namedview
     id="namedview1"
     pagecolor="#ffffff"
     bordercolor="#000000"
     borderopacity="0.25"
     inkscape:showpageshadow="2"
     inkscape:pageopacity="0.0"
     inkscape:pagecheckerboard="0"
     inkscape:deskcolor="#d1d1d1"
     inkscape:document-units="mm"
     inkscape:zoom="25.281247"
     inkscape:cx="15.980224"
     inkscape:cy="16.000002"
     inkscape:window-width="1920"
     inkscape:window-height="1009"
     inkscape:window-x="-8"
     inkscape:window-y="-8"
     inkscape:window-maximized="1"
     inkscape:current-layer="layer1" /><defs
     id="defs1" /><g
     inkscape:label="Layer 1"
     inkscape:groupmode="layer"
     id="layer1"><ellipse
       style="fill:#90c8d1;fill-opacity:1;stroke:#1c7281;stroke-width:1.18672;stroke-linecap:square;stroke-dasharray:none;stroke-opacity:1"
       id="path1"
       cx="16"
       cy="15.999999"
       rx="15.406643"
       ry="15.406642" /></g><g
     inkscape:groupmode="layer"
     id="layer2"
     inkscape:label="Layer 2"><path
       fill="currentColor"
       d="M 22.92,9.01 C 22.72,8.42 22.16,8 21.5,8 h -11 C 9.84,8 9.29,8.42 9.08,9.01 L 7,15 v 8 c 0,0.55 0.45,1 1,1 h 1 c 0.55,0 1,-0.45 1,-1 v -1 h 12 v 1 c 0,0.55 0.45,1 1,1 h 1 c 0.55,0 1,-0.45 1,-1 V 15 Z M 10.5,19 C 9.67,19 9,18.33 9,17.5 9,16.67 9.67,16 10.5,16 c 0.83,0 1.5,0.67 1.5,1.5 0,0.83 -0.67,1.5 -1.5,1.5 z m 11,0 C 20.67,19 20,18.33 20,17.5 20,16.67 20.67,16 21.5,16 22.33,16 23,16.67 23,17.5 23,18.33 22.33,19 21.5,19 Z M 9,14 10.5,9.5 h 11 L 23,14 Z"
       id="path1-4"
       style="fill:#0e373e;fill-opacity:1" /></g></svg>
