<?xml version="1.0" encoding="utf-8"?>
<!-- Generator: Adobe Illustrator 27.1.1, SVG Export Plug-In . SVG Version: 6.00 Build 0)  -->
<svg version="1.1" id="Layer_1" xmlns="http://www.w3.org/2000/svg" xmlns:xlink="http://www.w3.org/1999/xlink" x="0px" y="0px"
	 viewBox="0 0 48 48" style="enable-background:new 0 0 48 48;" xml:space="preserve">
<style type="text/css">
	.st0{fill:#FFFFFF;}
	.st1{fill:#0074DF;stroke:#004D94;stroke-miterlimit:10;}
</style>
<ellipse class="st0" cx="23.9" cy="18" rx="11.3" ry="13"/>
<path class="st1" d="M24,1C15.1,1,7.9,8.2,7.9,17.1C7.9,29.2,24,47,24,47s16.1-17.8,16.1-29.9C40.1,8.2,32.9,1,24,1 M24,5.6
	c2.5,0,4.6,2.1,4.6,4.6s-2.1,4.6-4.6,4.6s-4.6-2.1-4.6-4.6S21.5,5.6,24,5.6 M24,28.6c-3.8,0-7.2-2-9.2-4.9c0-3,6.1-4.7,9.2-4.7
	s9.2,1.7,9.2,4.7C31.2,26.7,27.7,28.6,24,28.6z"/>
</svg>
