<?xml version="1.0" encoding="UTF-8" standalone="no"?>
<!-- Created with Inkscape (http://www.inkscape.org/) -->

<svg
   width="32"
   height="32"
   viewBox="0 0 32 32"
   version="1.1"
   id="svg1"
   xml:space="preserve"
   inkscape:version="1.3 (0e150ed6c4, 2023-07-21)"
   sodipodi:docname="vandalism.svg"
   inkscape:export-filename="..\..\Projects\Web\citysavers\public\map-icons\blocked-road.svg"
   inkscape:export-xdpi="96"
   inkscape:export-ydpi="96"
   xmlns:inkscape="http://www.inkscape.org/namespaces/inkscape"
   xmlns:sodipodi="http://sodipodi.sourceforge.net/DTD/sodipodi-0.dtd"
   xmlns="http://www.w3.org/2000/svg"
   xmlns:svg="http://www.w3.org/2000/svg"><sodipodi:namedview
     id="namedview1"
     pagecolor="#ffffff"
     bordercolor="#000000"
     borderopacity="0.25"
     inkscape:showpageshadow="2"
     inkscape:pageopacity="0.0"
     inkscape:pagecheckerboard="0"
     inkscape:deskcolor="#d1d1d1"
     inkscape:document-units="mm"
     inkscape:zoom="25.281247"
     inkscape:cx="15.980224"
     inkscape:cy="16.000002"
     inkscape:window-width="1920"
     inkscape:window-height="1009"
     inkscape:window-x="-8"
     inkscape:window-y="-8"
     inkscape:window-maximized="1"
     inkscape:current-layer="layer1" /><defs
     id="defs1" /><g
     inkscape:label="Layer 1"
     inkscape:groupmode="layer"
     id="layer1"><ellipse
       style="fill:#d3aad2;fill-opacity:1;stroke:#971793;stroke-width:1.18672;stroke-linecap:square;stroke-dasharray:none;stroke-opacity:1"
       id="path1"
       cx="16"
       cy="15.999999"
       rx="15.406643"
       ry="15.406642" /><path
       fill="currentColor"
       d="M 5.3900001,7.9150001 13.29,15.815 c 0.18,0.2 0.18,0.5 -0.01,0.7 a 0.485,0.485 0 0 1 -0.7,0 l -1.71,-1.72 c -0.11,0.4 -0.26,0.78 -0.45,1.12 l 1.4,1.4 c 0.2,0.2 0.2,0.51 0,0.71 a 0.485,0.485 0 0 1 -0.7,0 l -1.2699999,-1.27 c -0.24,0.29 -0.5,0.56 -0.77,0.8 L 10.36,18.835 c 0.2,0.2 0.2,0.51 0,0.71 -0.1,0.1 -0.23,0.15 -0.3600001,0.15 -0.1299998,0 -0.2599998,-0.05 -0.3499998,-0.15 l -1.38,-1.38 c -0.69,0.46 -1.39,0.79 -1.97,1.02 -0.78,0.31 -1.3,1.04 -1.3,1.88 v 2.63 H 14.5 l 3.33,-3.33 5.94,5.94 1.41,-1.41 L 6.8100001,6.5050001 Z M 22.51,19.375 l -1.41,-1.41 4.48,-4.48 1.42,1.41 z m 2.37,-6.6 -4.48,4.48 -7.1,-7.09 4.5,-4.4699999 z"
       id="path1-9"
       style="fill:#6c1169;fill-opacity:1" /></g></svg>
